:SAMPLES-PER-SECOND 30
:FRAME-RANGE 1-2009
:FULLY-SPECIFIED
:DEGREES
1256
root  13.9595 38.5091 -88.9261 172.632 -56.8857 -169.202
RightUpLeg  -15.142 -0.99572 -0.880191
RightLeg  26.645 0.809694 0.205029
RightFoot  -12.0049 -0.0360316 7.86127
RightToes  2.96424e-010 1.2921e-014 -6.02303e-014
Spine  -0.755391 -3.68509 6.56305
Spine1  4.99095 -4.66801 4.75396
HEad  25.8759 34.3252 -10.5601
LeftShoulder1  0.946073 -1.92591 -11.1217
LeftArm  -27.3566 -24.0662 -35.0406
LeftForeArm  -44.5013 0.125445 -0.167859
LeftHand  4.462 -22.157 -17.9599
RightShoulder  0.904863 -0.25808 23.3801
RightArm  -28.4533 -5.05428 28.1552
RightForeArm  47.2011 -5.73017 1.61782
RightHand  0.164055 -6.52337 -18.1932
LeftUpLeg  -21.6631 5.61747 -2.72612
LeftLeg  66.2989 0.547784 2.09478
LeftFoot  2.32681 0.16223 -1.47158
LeftToes  -1.2485e-010 1.20979e-011 -1.0929e-011
1257
root  12.709 38.8292 -89.763 173.587 -59.2339 -170.166
RightUpLeg  -11.0555 -3.3878 -1.77789
RightLeg  23.8649 0.83046 0.171838
RightFoot  -13.0291 0.0222373 7.51087
RightToes  2.96424e-010 1.2921e-014 -6.02303e-014
Spine  -0.717035 -2.98864 6.89753
Spine1  4.71595 -3.61164 2.80257
HEad  25.2588 33.9225 -10.3966
LeftShoulder1  0.902117 -1.60235 -11.4497
LeftArm  -26.8981 -21.7134 -37.4858
LeftForeArm  -48.8712 -1.22906 -0.440862
LeftHand  2.12619 -9.92327 -15.559
RightShoulder  1.09891 0.482543 22.7177
RightArm  -27.1311 -2.69504 30.0165
RightForeArm  48.4356 -2.16668 3.0661
RightHand  0.107216 -6.13078 -18.7455
LeftUpLeg  -25.9181 7.82223 -4.37052
LeftLeg  60.5764 0.753554 2.03198
LeftFoot  -0.517655 -0.0195642 0.239581
LeftToes  -1.2485e-010 1.20979e-011 -1.0929e-011
1258
root  11.4715 39.0021 -90.5592 174.035 -61.1233 -170.317
RightUpLeg  -7.35814 -6.50534 -2.43975
RightLeg  21.3481 2.27502 0.805675
RightFoot  -14.0111 0.0745863 7.27605
RightToes  2.96424e-010 1.2921e-014 -6.02303e-014
Spine  -0.772127 -2.2177 7.40486
Spine1  4.82591 -2.56702 0.950076
HEad  24.0023 33.8773 -10.523
LeftShoulder1  0.824015 -1.04281 -12.0781
LeftArm  -27.1208 -18.9459 -39.1122
LeftForeArm  -56.5431 -3.14874 -0.515234
LeftHand  -0.148453 6.3024 -12.5122
RightShoulder  1.25288 1.11787 22.0257
RightArm  -25.8763 0.0747286 31.2837
RightForeArm  48.2331 3.00064 4.59486
RightHand  0.0365764 -5.67985 -19.1901
LeftUpLeg  -29.2713 10.1802 -5.53637
LeftLeg  52.2661 1.78096 2.93664
LeftFoot  -2.65841 -0.080163 1.26739
LeftToes  -1.2485e-010 1.20979e-011 -1.0929e-011
1259
root  10.19 39.0144 -91.3054 174.7 -62.9694 -170.449
RightUpLeg  -4.10613 -8.47307 -3.19172
RightLeg  19.3608 2.62278 1.16353
RightFoot  -15.4527 0.155695 7.25229
RightToes  2.96424e-010 1.2921e-014 -6.02303e-014
Spine  -0.977195 -1.5139 7.35464
Spine1  5.09825 -1.7458 -0.16426
HEad  22.2712 33.8845 -10.8949
LeftShoulder1  0.732443 -0.367379 -13.1708
LeftArm  -25.4642 -15.6273 -39.7744
LeftForeArm  -53.0798 0.302977 -0.708804
LeftHand  -0.104589 5.95288 -11.9549
RightShoulder  1.36085 1.63162 21.2372
RightArm  -24.3517 3.61516 31.5675
RightForeArm  47.5595 6.82345 5.92788
RightHand  -0.0890089 -4.91222 -19.056
LeftUpLeg  -31.3177 11.5206 -6.69012
LeftLeg  41.0821 3.82702 3.95029
LeftFoot  -2.83022 -0.150194 2.24806
LeftToes  -1.2485e-010 1.20979e-011 -1.0929e-011
1260
root  8.83409 38.9325 -92.0373 174.159 -65.1768 -169.528
RightUpLeg  -0.570905 -9.11235 -3.2701
RightLeg  17.576 0.652987 0.916256
RightFoot  -16.7452 0.259137 7.88963
RightToes  2.96424e-010 1.2921e-014 -6.02303e-014
Spine  -1.38866 -0.969406 7.61501
Spine1  6.00143 -1.07656 -1.19713
HEad  20.6079 33.5724 -10.9358
LeftShoulder1  0.664441 0.126516 -14.2242
LeftArm  -27.0273 -11.4733 -39.0885
LeftForeArm  -44.632 3.61822 0.102566
LeftHand  -0.0971235 5.91138 -11.4527
RightShoulder  1.43622 2.08125 20.2873
RightArm  -22.646 6.43462 31.6338
RightForeArm  43.562 10.5345 6.4708
RightHand  -0.114337 -4.78516 -20.0968
LeftUpLeg  -31.2732 11.5427 -6.99518
LeftLeg  27.0207 7.35741 4.3909
LeftFoot  -0.519352 -0.230408 2.4656
LeftToes  -1.2485e-010 1.20979e-011 -1.0929e-011
1261
root  7.35694 38.7375 -92.6934 173.108 -67.0878 -167.878
RightUpLeg  3.00018 -8.56921 -3.04039
RightLeg  15.5147 -1.43052 0.746878
RightFoot  -18.0019 0.386211 8.72378
RightToes  2.96424e-010 1.2921e-014 -6.02303e-014
Spine  -2.43747 -0.546368 8.00832
Spine1  7.64467 -0.468633 -2.39771
HEad  18.5437 33.6776 -10.8532
LeftShoulder1  0.528978 0.828251 -14.7185
LeftArm  -23.3884 -6.01208 -36.1481
LeftForeArm  -44.8422 4.79905 -1.38151
LeftHand  -0.0491603 8.77344 -0.0396443
RightShoulder  1.51514 2.48181 19.7832
RightArm  -18.7037 8.85286 31.007
RightForeArm  38.4673 14.4572 6.05274
RightHand  -0.171188 -4.38865 -18.6804
LeftUpLeg  -29.5931 6.41118 -4.15747
LeftLeg  11.519 16.3622 2.94905
LeftFoot  0.805373 -0.351925 3.2612
LeftToes  -1.2485e-010 1.20979e-011 -1.0929e-011
1262
root  5.75599 38.4724 -93.2559 171.356 -68.7394 -165.551
RightUpLeg  6.38278 -8.22506 -2.71153
RightLeg  14.1016 -2.64451 0.63624
RightFoot  -18.9301 0.544608 10.1286
RightToes  2.96424e-010 1.2921e-014 -6.02303e-014
Spine  -3.51204 -0.0417009 8.53489
Spine1  9.16663 0.260945 -3.39664
HEad  17.1871 33.8075 -10.0079
LeftShoulder1  0.395787 1.50296 -15.3798
LeftArm  -22.6231 0.63895 -31.8636
LeftForeArm  -37.6416 4.25542 -1.83049
LeftHand  -0.0811748 7.67549 -1.85695
RightShoulder  1.57719 2.88424 19.0404
RightArm  -14.5748 9.95995 29.7385
RightForeArm  33.6557 17.4521 5.26035
RightHand  -0.148719 -4.50528 -18.1152
LeftUpLeg  -28.2625 -0.985672 -0.232508
LeftLeg  -2.0421 25.1822 0.796044
LeftFoot  -0.734784 -0.361859 3.94487
LeftToes  -1.2485e-010 1.20979e-011 -1.0929e-011
1263
root  4.01385 38.1013 -93.7322 168.831 -69.8301 -162.554
RightUpLeg  9.03646 -8.39848 -2.47074
RightLeg  14.6737 -2.00662 0.452213
RightFoot  -19.7777 0.777064 12.3185
RightToes  2.96424e-010 1.2921e-014 -6.02303e-014
Spine  -4.05756 0.665493 8.99347
Spine1  9.92839 1.09093 -3.97063
HEad  16.6734 34.0359 -8.04677
LeftShoulder1  0.147807 2.62142 -15.0251
LeftArm  -18.4768 6.45146 -26.9739
LeftForeArm  -32.4736 3.98801 -3.43255
LeftHand  -0.0549929 6.19647 -2.60214
RightShoulder  1.68211 3.42523 18.5266
RightArm  -7.58527 9.43004 27.6857
RightForeArm  25.0769 20.9246 4.29624
RightHand  0.251992 -7.14059 -17.7097
LeftUpLeg  -29.0719 -2.31801 0.687079
LeftLeg  -6.15445 27.046 1.22381
LeftFoot  -5.86023 -0.0821047 2.45269
LeftToes  -1.2485e-010 1.20979e-011 -1.0929e-011
1264
root  2.22305 37.7539 -94.1237 167.625 -71.8528 -161.337
RightUpLeg  11.2241 -9.57452 -3.65504
RightLeg  17.3095 0.711228 0.428118
RightFoot  -20.1696 1.08335 15.726
RightToes  2.96424e-010 1.2921e-014 -6.02303e-014
Spine  -3.95202 1.09089 7.74932
Spine1  10.5674 1.63113 -3.86565
HEad  16.2265 33.7627 -5.15698
LeftShoulder1  -0.0310243 3.45445 -13.8115
LeftArm  -14.8881 11.1715 -22.5037
LeftForeArm  -28.0467 3.24243 -4.71931
LeftHand  -0.0345558 5.48115 -2.5014
RightShoulder  1.73199 3.5812 18.7029
RightArm  -10.6135 8.48845 26.0155
RightForeArm  29.1908 19.6134 4.59947
RightHand  -0.0226549 -5.3219 -18.0128
LeftUpLeg  -31.7009 -1.0718 -0.0124347
LeftLeg  2.04327 24.8835 2.62694
LeftFoot  -4.88717 -0.210454 4.25369
LeftToes  -1.2485e-010 1.20979e-011 -1.0929e-011
